<svg width="24" height="24" viewBox="0 0 24 24" fill="none" xmlns="http://www.w3.org/2000/svg">
<path fill-rule="evenodd" clip-rule="evenodd" d="M12 10.9998V11.9998H20C21.1046 11.9998 22 12.8952 22 13.9998C22 15.1043 21.1046 15.9998 20 15.9998L19 15.9998C20.1046 15.9998 21 16.8952 21 17.9998C21 19.1043 20.1046 19.9998 19 19.9998H12V20H18C19.1046 20 20 20.8954 20 22C20 23.1046 19.1046 24 18 24H10.3333C10.3249 24 10.3165 24 10.3081 23.9999H10C5.58172 23.9999 2 20.4182 2 15.9999C2 14.9447 2.20431 13.9372 2.57553 13.0147L6.02885 2.89578C6.57152 1.30562 8.31445 0.471359 9.89333 1.04603C11.4278 1.60452 12.2335 3.28787 11.7061 4.83328L10.9668 6.99975H21C22.1046 6.99975 23 7.89518 23 8.99975C23 10.1043 22.1046 10.9998 21 10.9998H12Z" fill="#FFDA4D"/>
<line x1="20" y1="11.5" x2="10" y2="11.5" stroke="#E9C334"/>
<line x1="19" y1="15.5" x2="11" y2="15.5" stroke="#E9C334"/>
<line x1="19" y1="19.5" x2="11" y2="19.5" stroke="#E9C334"/>
</svg>
