<svg width="24" height="24" viewBox="0 0 24 24" fill="none" xmlns="http://www.w3.org/2000/svg">
<g id="Frame 596" clip-path="url(#clip0_2772_1513)">
<path id="Rectangle 12" d="M12.7477 1.2171C14.3098 -0.344998 16.8425 -0.344998 18.4046 1.2171L22.7966 5.60907C24.3587 7.17117 24.3587 9.70383 22.7966 11.2659L10.0687 23.9938L0.019823 13.945L12.7477 1.2171Z" fill="#FFD120"/>
<path id="Union" fill-rule="evenodd" clip-rule="evenodd" d="M12.0627 22L2.0139 11.9512L-0.107422 14.0725L0.000226542 14.1801V24H9.82009L9.94141 24.1213L12.0627 22Z" fill="#FFF6D2"/>
<path id="Vector 7" d="M6 24L0 18V24H6Z" fill="#24282C"/>
<path id="Rectangle 13" d="M12.7477 1.2171C14.3098 -0.344999 16.8425 -0.344998 18.4046 1.2171L22.7966 5.60907C24.3587 7.17117 24.3587 9.70383 22.7966 11.2659L22.1094 11.9531L12.0605 1.9043L12.7477 1.2171Z" fill="#F03E4C"/>
</g>
<defs>
<clipPath id="clip0_2772_1513">
<rect width="24" height="24" fill="white"/>
</clipPath>
</defs>
</svg>
