<svg width="24" height="24" viewBox="0 0 24 24" fill="none" xmlns="http://www.w3.org/2000/svg">
<g id="Frame 596" clip-path="url(#clip0_2786_507)">
<path id="Vector" d="M0.648451 23.3337C0.648451 23.3337 0.624451 18.0144 2.63845 16.0004C4.65245 13.9864 9.99978 14.1251 9.99978 14.1251C9.99978 14.1251 9.99912 19.3337 7.99912 21.3337C5.99912 23.3337 0.648451 23.3337 0.648451 23.3337Z" fill="#F03E4C"/>
<path id="Vector_2" d="M20.9376 5.7814L17.0641 22.2543C16.6584 23.9797 14.516 24.5891 13.2631 23.3356L0.663954 10.7361C-0.588954 9.48327 0.0204663 7.34088 1.74526 6.93524L18.2185 3.06177C19.8538 2.67758 21.3224 4.14622 20.9382 5.7814H20.9376Z" fill="#4E5866"/>
<path id="Rectangle 12" d="M14.3127 1.73221C16.5169 -0.471955 20.0905 -0.471958 22.2947 1.73221V1.73221C24.4989 3.93638 24.4989 7.51004 22.2947 9.71421L10.6438 21.3651C7.52665 18.2479 5.77898 16.5003 2.66181 13.3831L14.3127 1.73221Z" fill="#8C98A7"/>
<path id="Vector_3" d="M18.5006 8.0011C19.8816 8.0011 21.0011 6.88157 21.0011 5.50055C21.0011 4.11953 19.8816 3 18.5006 3C17.1195 3 16 4.11953 16 5.50055C16 6.88157 17.1195 8.0011 18.5006 8.0011Z" fill="#FFFAE9"/>
</g>
<defs>
<clipPath id="clip0_2786_507">
<rect width="24" height="24" fill="white"/>
</clipPath>
</defs>
</svg>
